<svg version="1.1" xmlns="http://www.w3.org/2000/svg" xmlns:xlink="http://www.w3.org/1999/xlink" x="0px" y="0px"
	 viewBox="0 0 126.4 126.4" style="enable-background:new 0 0 126.4 126.4;" xml:space="preserve">
<style type="text/css">
	.st0{fill:#5F5F5F;}
</style>
<path class="st0" d="M103,45.9c-2.9,0-5.2-2.4-5.2-5.2V28.7H85.7c-2.9,0-5.2-2.4-5.2-5.2c0-2.9,2.3-5.2,5.2-5.2h12.1V6.2
	c0-2.9,2.3-5.2,5.2-5.2s5.2,2.3,5.2,5.2v12.1h12.1c2.9,0,5.2,2.3,5.2,5.2c0,3-2.6,5.2-5.2,5.2h-12.1v12.1
	C108.2,43.7,105.6,45.9,103,45.9z M56.3,125.4C25.7,125.4,1,100.7,1,70.1s24.7-55.3,55.3-55.3c4.6,0,7.9,0.4,9.5,0.8
	c2.4,0.6,4.3,2.6,4.3,5.1c0,2.8-2.4,5.2-5.2,5.2c-0.8,0-5.1-0.8-8.6-0.8c-24.8,0-44.9,20.1-44.9,44.9s20.1,44.9,44.9,44.9
	s44.9-20.1,44.9-44.9c0-4.4-0.8-7.5-0.8-8.6c0-2.8,2.4-5.2,5.2-5.2c2.5,0,4.7,1.9,5.1,4.2c0.6,3.2,0.8,6.5,0.8,9.6
	C111.6,100.7,86.9,125.4,56.3,125.4z M39,66.7c-5.7,0-10.4-4.6-10.4-10.4S33.3,45.9,39,45.9s10.4,4.6,10.4,10.4S44.8,66.7,39,66.7z
	 M73.6,66.7c-5.7,0-10.4-4.6-10.4-10.4s4.6-10.4,10.4-10.4S84,50.6,84,56.3S79.3,66.7,73.6,66.7z M56.3,104.7
	c-19.6,0-27.7-14.9-27.7-22.5c0-2.8,2.1-5.2,5.2-5.2h44.9c3,0,5.2,2.4,5.2,5.2C84,89.5,76.1,104.7,56.3,104.7z"/>
</svg>
